<?xml version="1.0" encoding="utf-8"?>
<!-- Generator: Adobe Illustrator 25.0.0, SVG Export Plug-In . SVG Version: 6.00 Build 0)  -->
<svg version="1.1" id="Layer_1" xmlns="http://www.w3.org/2000/svg" xmlns:xlink="http://www.w3.org/1999/xlink" x="0px" y="0px"
	 viewBox="0 0 1920 300" style="enable-background:new 0 0 1920 300;" xml:space="preserve">
<style type="text/css">
	.st0{fill:#2955DE;}
	.st1{clip-path:url(#SVGID_2_);fill:#0C3291;}
	.st2{clip-path:url(#SVGID_2_);fill:none;stroke:#81E1F7;stroke-width:3.1409;stroke-miterlimit:10;}
	.st3{clip-path:url(#SVGID_2_);fill:none;stroke:#81E1F7;stroke-width:2.9775;stroke-miterlimit:10;}
</style>
<rect class="st0" width="1920" height="300"/>
<g>
	<g>
		<g>
			<defs>
				<rect id="SVGID_1_" width="1920" height="300"/>
			</defs>
			<clipPath id="SVGID_2_">
				<use xlink:href="#SVGID_1_"  style="overflow:visible;"/>
			</clipPath>
			<path class="st1" d="M221.7,416.4c-5.4,0-10.3-3.5-12.1-8.7c-13.1-39.7-65.2-202.2-42.5-206.5c17.5-3.3,47-6.2,64.4-7.8
				c7.4-0.7,13.7,5.1,13.7,12.6v194.1c0,9-7.3,16.3-16.3,16.3L221.7,416.4L221.7,416.4z"/>
			<path class="st1" d="M228.7,479.1c-4.2,8.9-0.7,32,21.1,33.1c21.7,1,38.9-22.8,23.8-38.2C258.5,458.4,237.8,460.1,228.7,479.1z"
				/>
			<path class="st2" d="M223,487.3c-4.2,8.9-0.7,32,21.1,33.1c21.8,1,38.9-22.8,23.8-38.2C252.9,466.7,232.1,468.3,223,487.3z"/>
			<path class="st1" d="M1726.1-151l78-97.5c5-6.3,14.9-5,18.3,2.2l51.1,112.1c1.9,4.2,6.3,6.7,10.8,6.3l88.7-8.4
				c10.2-0.9,15.9,11.4,8.6,18.5l-60.1,58.7c-5.5,5.4-3.8,14.6,3.3,17.7l91.9,39.9c9.2,4,8.5,17.4-1.2,20.3l-99.4,29.9
				c-5.8,1.8-9.1,7.9-7.2,13.7l21.4,64.9c3.2,9.5-7.4,17.8-16,12.6l-94.5-57.9c-5.9-3.5-13.5-0.8-15.9,5.6l-28.7,80.2
				c-3.3,9.1-15.8,9.7-20,1l-53.4-111.4c-2.2-4.6-7.4-7-12.3-5.8l-95.9,23.6c-10.3,2.5-17.7-9.6-10.8-17.6l86.5-100.5
				c3.4-3.9,3.5-9.6,0.4-13.6l-66.5-86.1c-5.9-7.6,0.4-18.5,9.9-17.4l103.2,12.8C1720.1-146.5,1723.8-148,1726.1-151z"/>
			<path class="st3" d="M1748-204.8l53.6-67.2c5-6.3,14.9-5,18.3,2.2l51.1,112.1c1.9,4.2,6.3,6.7,10.8,6.3l88.7-8.4
				c10.2-0.9,15.9,11.4,8.6,18.5L1919-82.6c-5.5,5.4-3.8,14.6,3.3,17.7l91.9,39.9c9.2,4,8.5,17.4-1.2,20.3l-63.2,19"/>
			<path class="st2" d="M1843.1,56.4c-17.6,14.8-37,23.6-58.8,26.7c-30.1,4.3-59.9-2.6-88.7-9.3c-25.4-5.9-49.3-11.5-70.7-8.6
				c-33.6,4.5-48.8,13.5-67.9,24.8c-21.1,12.5-45,26.7-98.6,39c-24.6,5.6-48,5.3-69.6-0.8c-17.3-5-33.4-13.6-47.8-25.8
				c-24.4-20.6-35.5-44.1-36-45.1l15.4-7.2c0.1,0.2,10.3,21.6,32,39.7c12.5,10.5,26.4,17.9,41.4,22.1c18.7,5.2,39.1,5.4,60.7,0.5
				c50.9-11.6,73.6-25.1,93.6-37c20-11.9,37.2-22.1,74.3-27.1c24.5-3.3,49.9,2.6,76.9,8.9c27.3,6.4,55.5,12.9,82.5,9.1
				c14.2-2.1,26.9-6.7,38.8-14.4c13.5-8.7,26.3-21.5,37.8-38l13.9,9.8C1863.3,36.7,1853.6,47.6,1843.1,56.4z"/>
			<path class="st2" d="M1398.8,612.6l-18.4-9c0.2-0.5,22.1-45.7,37.4-104.1c8.9-34,13.8-65.8,14.6-94.3c0.9-35-4.3-65.3-15.6-90
				c-8.3-18.1-20.2-33.5-35.1-45.8c-16.6-13.5-37.6-23.7-62.6-30.2c-49.8-12.9-88.7-12.8-119.2,0.1c-26.5,11.3-44.3,31.3-61.4,50.6
				c-33.3,37.6-67.6,76.5-161.1,42.5c-71.6-26.1-137.6-35.5-196.3-28c-46.6,5.9-88.8,22.4-125.5,49c-62.8,45.7-88,106.3-88.3,107
				l-19-7.7c1.1-2.7,27.3-66,94.4-115.2c39.5-29,84.9-46.9,135.1-53.3c62.1-8,131.6,1.8,206.5,29.1c80.2,29.2,106,0.1,138.6-36.8
				c17.7-20.1,37.8-42.8,68.7-56c34.8-14.8,78-15.1,132.4-1.1c53.5,13.8,90.9,43.2,111.2,87.3c12.7,27.6,18.6,61,17.5,99.3
				c-0.8,30.2-6,63.5-15.3,99C1421.8,565.5,1399.7,610.8,1398.8,612.6z"/>
			<path class="st2" d="M154.5,308.3c-6.7,0-13.7-0.4-21-1.2c-21.1-2.3-44.6-8.1-69.6-17.2c-42.3-15.1-74.5-34.3-75.9-35l10-16.8
				c0.3,0.2,32.1,19.1,72.8,33.6c36.5,13.1,87.8,25.4,124.9,9.6c23.9-10.2,39-30.5,46.4-61.9c7.8-33.4,2.8-66-14.9-97.2
				c-14.5-25.6-37.3-50.4-68-73.5C106.1,8.4,47.7-13.2,47.1-13.5L54-32c2.5,0.9,61.5,22.8,116.8,64.6c32.9,24.8,57.6,51.7,73.4,79.6
				c20.2,35.7,25.9,73.2,17,111.5c-8.7,37.5-28.2,62.9-57.8,75.6C189.3,305.3,172.9,308.3,154.5,308.3z"/>
			<path class="st1" d="M1143.8,280.4l68.6,24.8c4.4,1.6,5.6,7.3,2.1,10.6l-52.4,49.3c-2,1.9-2.5,4.8-1.4,7.2l21.3,47.5
				c2.4,5.4-3.3,10.9-8.6,8.2l-43.7-22.2c-4-2.1-8.8,0.7-9.2,5.1l-4.9,58.4c-0.5,5.9-8,7.9-11.5,3.2l-35.2-49.4
				c-2.1-2.9-6.1-3.5-9-1.4l-31.9,24c-4.7,3.5-11.3-0.7-10-6.4l14.3-63.2c0.8-3.9-2.1-7.7-6.1-7.8l-49.8-0.8
				c-5.6-0.1-8.3-6.9-4.3-10.8l51.6-50.4c2.1-2.1,2.5-5.4,0.9-7.9l-31.1-48.7c-3.4-5.2,2-11.6,7.7-9.2l71.8,29.1
				c2.8,1.1,6,0.1,7.7-2.3l35.1-53c3.1-4.7,10.4-3.3,11.5,2.2l12.3,59.5C1140.1,277.9,1141.7,279.7,1143.8,280.4z"/>
			<path class="st1" d="M583.1,61.3l6.5,65.9c0.5,4.3-3.8,7.5-7.8,5.9L521,109.4c-2.2-0.8-4.9-0.2-6.4,1.7l-30.5,36
				c-3.5,4.1-10.3,1.6-10.1-3.8l1.1-44.5c0.1-4.1-3.9-6.9-7.8-5.5l-49.6,18.9c-5,1.9-9.6-3.5-7.1-8.1l26.5-48.1
				c1.6-2.8,0.5-6.4-2.3-7.8l-32.1-16.7c-4.8-2.4-3.8-9.5,1.4-10.6l57.3-13c3.5-0.8,5.4-4.7,3.9-7.9l-18.8-41.1
				c-2.1-4.7,2.4-9.5,7.2-7.8l61.5,22.4c2.5,0.9,5.4-0.1,6.8-2.3l27.7-44.5c3-4.8,10.3-2.9,10.6,2.7l4.4,70.2c0.2,2.7,2.2,5,5,5.3
				l57.1,8c5,0.7,6.7,7.2,2.7,10.3l-44.1,33.3C583.7,57.4,582.9,59.3,583.1,61.3z"/>
			<path class="st2" d="M555.3,130.8l-29-11.2c-2.2-0.8-4.9-0.2-6.4,1.7l-30.5,36c-3.5,4.1-10.3,1.6-10.1-3.8l1.1-44.5
				c0.1-4.1-3.9-6.9-7.8-5.5L423,122.2c-5,1.9-9.6-3.5-7.1-8.1L442.6,66c1.6-2.8,0.5-6.4-2.3-7.8l-17-8.8"/>
			<path class="st1" d="M915.9,55.5c-3.4-3.7-4.1-9-1.7-13.4c18.2-33.3,93.6-168.8,110.5-156.4c13,9.6,33.3,27.3,45.1,37.9
				c5,4.5,5.1,12.4,0.2,16.9L941.3,60.9c-6,5.5-15.2,5.3-20.9-0.7L915.9,55.5z"/>
			<path class="st1" d="M891.1,70c-8.5,2.7-21.7,19.5-8.8,34.5c12.8,15.1,39.2,11.6,40.2-8S909.4,64.2,891.1,70z"/>
			<path class="st2" d="M882.2,71.3c-8.5,2.7-21.7,19.5-8.8,34.5c12.8,15.1,39.2,11.6,40.2-8C914.3,78.2,900.4,65.5,882.2,71.3z"/>
		</g>
	</g>
</g>
</svg>
